<mxfile host="65bd71144e">
    <diagram id="srVR8HqseJiSicjtBOqm" name="Page-1">
        <mxGraphModel dx="666" dy="547" grid="1" gridSize="10" guides="1" tooltips="1" connect="1" arrows="1" fold="1" page="1" pageScale="1" pageWidth="850" pageHeight="1100" background="#ffffff" math="0" shadow="0">
            <root>
                <mxCell id="0"/>
                <mxCell id="1" parent="0"/>
                <mxCell id="58" style="edgeStyle=none;html=1;flowAnimation=1;" parent="1" source="55" edge="1">
                    <mxGeometry relative="1" as="geometry">
                        <mxPoint x="320" y="426" as="targetPoint"/>
                    </mxGeometry>
                </mxCell>
                <mxCell id="55" value="" style="whiteSpace=wrap;html=1;dashed=1;fillColor=#ffe6cc;strokeColor=#d79b00;" parent="1" vertex="1">
                    <mxGeometry x="80" y="282" width="120" height="288" as="geometry"/>
                </mxCell>
                <mxCell id="30" value="Payment Process" style="whiteSpace=wrap;html=1;rounded=1;fillColor=#d5e8d4;strokeColor=#82b366;" parent="1" vertex="1">
                    <mxGeometry x="420" y="504" width="240" height="135" as="geometry"/>
                </mxCell>
                <mxCell id="3" value="Mobile app" style="html=1;verticalLabelPosition=bottom;align=center;labelBackgroundColor=#ffffff;verticalAlign=top;strokeWidth=2;strokeColor=#0080F0;shadow=0;dashed=0;shape=mxgraph.ios7.icons.smartphone;" parent="1" vertex="1">
                    <mxGeometry x="131" y="305" width="18" height="30" as="geometry"/>
                </mxCell>
                <mxCell id="9" value="Web app" style="image;aspect=fixed;html=1;points=[];align=center;fontSize=12;image=img/lib/azure2/app_services/App_Services.svg;" parent="1" vertex="1">
                    <mxGeometry x="120" y="395" width="40" height="40" as="geometry"/>
                </mxCell>
                <mxCell id="26" style="edgeStyle=none;html=1;entryX=0;entryY=0.5;entryDx=0;entryDy=0;fontFamily=Helvetica;fontSize=12;fontColor=default;flowAnimation=1;" parent="1" source="10" target="12" edge="1">
                    <mxGeometry relative="1" as="geometry">
                        <Array as="points">
                            <mxPoint x="350" y="285"/>
                        </Array>
                    </mxGeometry>
                </mxCell>
                <mxCell id="27" style="edgeStyle=none;html=1;entryX=0;entryY=0.75;entryDx=0;entryDy=0;fontFamily=Helvetica;fontSize=12;fontColor=default;flowAnimation=1;exitX=0.5;exitY=0;exitDx=0;exitDy=0;exitPerimeter=0;" parent="1" source="10" edge="1">
                    <mxGeometry relative="1" as="geometry">
                        <mxPoint x="370" y="351" as="sourcePoint"/>
                        <mxPoint x="450" y="351" as="targetPoint"/>
                        <Array as="points">
                            <mxPoint x="350" y="351"/>
                        </Array>
                    </mxGeometry>
                </mxCell>
                <mxCell id="31" style="edgeStyle=none;html=1;entryX=0;entryY=0.5;entryDx=0;entryDy=0;flowAnimation=1;" parent="1" source="10" target="19" edge="1">
                    <mxGeometry relative="1" as="geometry">
                        <Array as="points">
                            <mxPoint x="350" y="461"/>
                            <mxPoint x="350" y="610"/>
                        </Array>
                    </mxGeometry>
                </mxCell>
                <mxCell id="32" style="edgeStyle=none;html=1;entryX=0;entryY=0.5;entryDx=0;entryDy=0;flowAnimation=1;" parent="1" source="10" target="18" edge="1">
                    <mxGeometry relative="1" as="geometry">
                        <Array as="points">
                            <mxPoint x="350" y="540"/>
                        </Array>
                    </mxGeometry>
                </mxCell>
                <mxCell id="12" value="api/{version}/orders" style="whiteSpace=wrap;html=1;perimeterSpacing=0;rounded=1;align=center;" parent="1" vertex="1">
                    <mxGeometry x="450" y="265" width="170" height="40" as="geometry"/>
                </mxCell>
                <mxCell id="13" value="api/{version}/orders" style="whiteSpace=wrap;html=1;rounded=1;" parent="1" vertex="1">
                    <mxGeometry x="450" y="330" width="170" height="40" as="geometry"/>
                </mxCell>
                <mxCell id="15" value="SQL server" style="image;aspect=fixed;html=1;points=[];align=center;fontSize=12;image=img/lib/azure2/databases/SQL_Server.svg;rounded=1;strokeColor=default;verticalAlign=middle;fontFamily=Helvetica;fontColor=default;fillColor=default;flipH=0;flipV=0;" parent="1" vertex="1">
                    <mxGeometry x="780" y="340" width="60" height="60" as="geometry"/>
                </mxCell>
                <mxCell id="18" value="api/{version}/orders/ipn" style="whiteSpace=wrap;html=1;rounded=1;strokeColor=default;align=center;verticalAlign=middle;fontFamily=Helvetica;fontSize=12;fontColor=default;fillColor=default;" parent="1" vertex="1">
                    <mxGeometry x="450" y="518" width="170" height="40" as="geometry"/>
                </mxCell>
                <mxCell id="19" value="api/{version}/orders/callback-data" style="whiteSpace=wrap;html=1;rounded=1;strokeColor=default;align=center;verticalAlign=middle;fontFamily=Helvetica;fontSize=12;fontColor=default;fillColor=default;" parent="1" vertex="1">
                    <mxGeometry x="450" y="587" width="190" height="40" as="geometry"/>
                </mxCell>
                <mxCell id="22" style="edgeStyle=none;html=1;entryX=0.333;entryY=-0.067;entryDx=0;entryDy=0;entryPerimeter=0;fontFamily=Helvetica;fontSize=12;fontColor=default;flowAnimation=1;" parent="1" source="12" target="15" edge="1">
                    <mxGeometry relative="1" as="geometry">
                        <Array as="points">
                            <mxPoint x="800" y="285"/>
                        </Array>
                    </mxGeometry>
                </mxCell>
                <mxCell id="23" style="edgeStyle=none;html=1;entryX=-0.067;entryY=0.167;entryDx=0;entryDy=0;entryPerimeter=0;fontFamily=Helvetica;fontSize=12;fontColor=default;flowAnimation=1;" parent="1" edge="1">
                    <mxGeometry relative="1" as="geometry">
                        <mxPoint x="620" y="358.00705452734655" as="sourcePoint"/>
                        <mxPoint x="775.98" y="358.02" as="targetPoint"/>
                    </mxGeometry>
                </mxCell>
                <mxCell id="24" style="edgeStyle=none;html=1;entryX=0.383;entryY=1.067;entryDx=0;entryDy=0;entryPerimeter=0;fontFamily=Helvetica;fontSize=12;fontColor=default;exitX=1;exitY=0.5;exitDx=0;exitDy=0;flowAnimation=1;" parent="1" source="18" target="15" edge="1">
                    <mxGeometry relative="1" as="geometry">
                        <Array as="points">
                            <mxPoint x="800" y="540"/>
                        </Array>
                    </mxGeometry>
                </mxCell>
                <mxCell id="29" value="Redis" style="image;sketch=0;aspect=fixed;html=1;points=[];align=center;fontSize=12;image=img/lib/mscae/Cache_Redis_Product.svg;rounded=1;strokeColor=default;verticalAlign=middle;fontFamily=Helvetica;fontColor=default;fillColor=default;" parent="1" vertex="1">
                    <mxGeometry x="770" y="582" width="40" height="33.6" as="geometry"/>
                </mxCell>
                <mxCell id="43" style="edgeStyle=none;html=1;entryX=0;entryY=0.5;entryDx=0;entryDy=0;targetPerimeterSpacing=6;rounded=0;curved=0;sourcePerimeterSpacing=6;strokeColor=default;startArrow=classic;startFill=1;flowAnimation=0;dashed=1;" parent="1" target="36" edge="1">
                    <mxGeometry relative="1" as="geometry">
                        <mxPoint x="140" y="550" as="sourcePoint"/>
                        <Array as="points">
                            <mxPoint x="140" y="690"/>
                        </Array>
                    </mxGeometry>
                </mxCell>
                <mxCell id="52" value="Message/Email" style="edgeLabel;html=1;align=center;verticalAlign=middle;resizable=0;points=[];" parent="43" vertex="1" connectable="0">
                    <mxGeometry x="-0.0103" y="1" relative="1" as="geometry">
                        <mxPoint as="offset"/>
                    </mxGeometry>
                </mxCell>
                <mxCell id="33" value="Webhook/HubÂ client" style="shape=image;imageAspect=0;aspect=fixed;verticalLabelPosition=bottom;verticalAlign=top;image=data:image/png,iVBORw0KGgoAAAANSUhEUgAAAgAAAAIACAYAAAD0eNT6AAAACXBIWXMAAOw4AADsOAFxK8o4AAAAGXRFWHRTb2Z0d2FyZQB3d3cuaW5rc2NhcGUub3Jnm+48GgAAIABJREFUeJzt3XmYHVWd//F3J2QjG4GEPQIBwqaAIpsgq4ALIgj+XHEdRx11REFREZURNxRFGRXHUVHHbdwQZVAUBBSQVdlBJGxhDYQshJCt+/fH6dZrm05uV1fd76m679fzfJ724RHqnG/dWm7dU+eAJEmSJEmSJEmSJEmSJEmSJEmSJEmSJEmSJEmSJEmSJEmSJEmSJEmSJEmSJEmSJEmSJEmSJEmSJEmSJEmSJEmSJEmSJEmSJEmSJEmSJEmSJEmSJEmSJEmSJEmSJEmSJEmSJEmSJEmSJEmSJEmSJEmSJEmSJEmSJEmSJEmSJEmSJEmSJEmSJEmSJEmSJEmSJKmInugGSCrVesCmwMb9fzcCZvT/83X7M3WIf3c5sKg/C/r/zgPuB+4DHgAerbDtkjrIGwCpnrYEngVsB8xu+btBxdt9CvgLcDtwG3BL/9+bgJUVb1tSibwBkPI3Fdgf2BPYrT/TQ1v0z5YC1wFXA1cBlwP3hLZI0hp5AyDlZ11gP+DA/jwLGB3aomLuBC4EfgtcBDwW2xxJkvIzA3gjcA6wBOhrWFYBVwDvBbYuqWaSJNXSNOAtwKWk38+jL9KdzJ+BD+PNgCSpS4wBXgz8iDSgLvpCHJ1e4BLgDcCkEdRVkqQsbUz6xns/8RfdXPME8N/AzgVrLElSNvYE/gdYRvwFtk65kPSkZNTwSy5JUpwDSCPfoy+kdc8dpMGRY4ZVfUmSOmxf0mtv0RfOpuVu4F3AuLb3hCRJHbAnaTR/9IWy6ZkDHIs/DUiSgj0N+DZpNHv0xbGbcg1psiRJkjpqMnA6Du6Lzo+BWWvZV5IkleLFpHnuoy9+JuVJ4KPA2DXsM0mSCtuMNIFP9AXPrD43AHsNufckSSrgTcAi4i9yZs1ZCXweGL/63ShJUntmAD8j/sJmhpdbgGeuZn9KkrRWRwAPE38xM8XyFHA8vjIoSWrTOsBp+GpfU/JrYDqSJK3BDOA3xF+0TLm5jzRZkyRJ/2Qf4AHiL1ammiwlrSsgSdLfvIb0m3H0RcpUn/8ERiNJ6mo9pElk/L2/u/Jr0myOkqQuNA74HvEXIxOTq4GNkSR1lYm4bK+Bu4DZSJK6wlTgMuIvPiaPPAQ8A0lSo60PXEn8RcfklfnA7khdpCe6AVIHTQcuBnYKbofy9DhwGGlsgNR43gCoW0wFLgR2i26IsrYQOAi4LrohUtWcI1vdYF3gF3jx19pNBX4FbB/dEKlq3gCo6caTLv7PjW6IamMG6SZg8+iGSFXyJwA1WQ/pPf9XRDckyP3AHGAu8Eh/HiXNeLh0Nf//acCU/swENuv/OwsY24H25uZWYF/SAEGpcbwBUJOdCpwU3YgOWEr6zfra/twA3AEsKem/vw6wFWnw5C6kRXX2JL1R0XS/Iw0MXBHdEElSe15P/KtlVWUVcAVpCuMDSD9zRNgR+HfgXGAx8XWpKl8rq2CSpGrtBywj/sJRZlYC/wf8C7BReaUqzXjgCOBbpNfpoutVdo4vr1SSpCpsSprZLfqCUVZuBN5NveasHw+8nDSQbhXxNSwjq0g/BUiSMjQG+APxF4uRZgXwI2D/cssTYgvgMzTjqcA8fDNAkrJ0BvEXiZHkKeAsYMuS65KDScC7SG8mRNd5JLmMdKMpScrEMcRfHIpmOfBluuPb5QTSjcCDxNe9aD5belUkSYVsSnq/PfrCUCQ/AbYrvyTZm0R6TfNJ4vfBcNMLPL/8kkiShqOHNNgs+qIw3NxGmnO+221BugmK3h/DzVzSxEmSpCBvJ/5iMJw8BZwMjKuiGDV2JOmiGr1/hpPvVlIJSdJabUOa7S76QtBurgd2rqQSzTCFNI9A9H4aTo6ppBKSpDW6gPgLQDvpBU7Db/3tejn1eW3wEbpjSmRJysariD/5t5PHSTPkaXi2JK1rEL3/2slZ1ZRAkjTYNOox298NwNYV1aAbTKAePwmsAvaoqAaSpBZfIf6kv7acB0yuqgBd5gTyn1L4WmB0VQWQJKUlaVcSf8JfU87Ei0HZXk56gyJ6364pb62s95IkziP+RL+mnFJd17veAcAi4vfxUHmQNMGRJKlkBxN/kh8qvbhkbCfsDSwgfn8PlY9U13VJ6k6jgOuIP8EPFS/+nbM7+d4ELAY2qq7rktR9cl7sx299nfdc8l1H4MwK+y1JXaUH+DPxJ/bV5QsV9ltr9iLSSorRn4HBWQpsUmG/JalrvIT4k/rqch6O9o/2BuI/B6vLZ6rstCR1i6uJP6EPzrXAxCo7rbZ9jvjPw+AsBjaostOS1HSHEH8yH5xHScvYKg+jgfOJ/1wMzkcr7LMkNd65xJ/IW7MKOLTSHquI6cC9xH8+WvMQsE6VnZakptqa/KaAdaKffO1DfoMCD6u0x5LUULn9tnslfqPL3cnEf05ac3alvZWkBppIXmvCPwHMrrTHKsM6wDXEf14Gcnu13ZWk5jmW+JN3a95TbXdVop3IZ+GgFcDYarsrSc3yG+JP3gO5Dh/9183HiP/cDGTHivsqSY0xk3wG/60Cnl1td1WBCcBdxH9++oBnVtxXqRC/1ShHryEt/pODb5F+U667pwG7AFsBM0gL1qxHmrBmJemR+X3AA8AdwPWkEfV1tRR4N/Cz6IZQ7zpKUkfdSPy3tj5gCbBZxX2tyizg7aTpiucz/L4vI731cDqwH/Wd8vj3xH+Otqm8l5LUANsQf8IeyMcq7mvZpgBvJU1TXHYt5gFfJg2wq5N9iP0MPYlPWiWpLccTf+HvAxYC0yrua1k2JM2Z8ASdqc2F1Gs2xF8Q9zm6rAP9k6RGuJT4i38fcGrVHS3BRODjpN/xI2p0AbBr5b0cub2I+xyd3oH+SVLtzSANSIu++D9B/iu5HUYeo9xXkS5yE6rt7ohdREx96nCDJEnhXkX8Ba0POKvqjo7AeOC/ia/R4NxC3q9LPo/O18TH/5LUphwubL3kO9DtaeQ1ze3gLCW9wpmrP9DZery0M92SpPqbQ/xF7KLKe1nMbsAjxNdnbekFPgH0VFOGEdmNNDVvJ+pwbof6JEm1txXxF68+0hoEudkbWEB8bYaTL5LnTcB/UH3fF5Jms5QkteGNxF+0FpFG1udkL+JG+Y80n6+gHiM1ivTtvKo+P0UabyBJatNXib9gfbPyXg7PlsBDxNdlJDmh7KKUYDzwK8rv6wrgyA72Q5IaoYrZ64abIyrvZfsmAzcRX5ORZiXw/JJrU4YxwFcor58PAYd0tAeS1ADjSQumRF6oniCvd9nPJv7iXVYeJ73BkKMjgLmMrH+/ATbpdMMlqQn2IP4i9dPKe9m+Y4ivR9n5FXkOCoR04/du4E7a708v6Y2RFwS0V5Ia463EX6DeVnkv27M+8Cjx9agibyqxTlXoAfYlLQJ1AXAPaWBoL2lFxZuBHwHvJK22KEkaoS8Qf3GaXXkv25NDLarKfGB6eaWSJNXd+cRemO6rvottmU38WIiq86XSqiVJqr3oGQB/WH0X2/Jt4i/QVWclsHNZBZMk1dc44lcAfG/lvVy7jUiTyERfoDuRC0uqmaQRGBXdAHW9WcDo4DZcE7x9gHeQboa6wUHAUdGNkCTFOpj4b6QbVN7LNesB7ia+Dp3MnaT5HyQF8QmAokVPoPIo8FhwG3YHtghuQ6fNIr17LymINwCKFn0DcHvw9qF7143/APH7X+pa3gAo2sbB278zePuQfgbpRpOBT0Y3QupW3gAo2ozg7T8QvP11gV2C2xDpWNJU0JI6zBsARZscvP3oG4Bnk1am61ajgDPId50AqbG8AVC0ScHbfyh4+zsGbz8HewOvim6E1G28AVC06CcAC4O3v2Xw9nPxaWBidCOkbuINgKJF3wAsDt5+t73+N5TNgBOjGyF1E28AFG1s8PafCN7++sHbz8kJ+ERE6hhvANTtVgVvv1um/23HBOC06EZI3cIbAEXri25AsOgnILl5GXBAdCOkbuANgKL1Bm8/+hhYGbz9HH2e+AWipMaLPvlJ0U8Aor+BR69DkKNdgTdFN0JqOm8AFG1Z8Paj30LwBmD1TgXWi26E1GTeACjaouDtTwnefvRMhLmaAZwc3QipybwBULToG4Bpwdu/OXj7OXsnsF10I6Sm8gZA0aIn4tk0ePveAAxtDHBmdCOkpvIGQNGip+LdLHj7txM/GVHODgFeEN0IqYm8AVC0R4K3v3nw9lcAFwe3IXefo7tXTJQq4Q2Aot0fvP1tg7cPcEF0AzK3PfCO6EZIksp1OGkugKg8RfykM1uRJkSKrEPueZz0ZoCkkvgEQNGinwCMI12AI90FXBLchtytB3wsuhFSk3gDoGhzoxsAPCu6AcA3ohtQA/8C7BLdCKkpvAFQtHnAguA27B68fYAfAw9HNyJzo4EzohshNYU3AMrB7cHb3yN4+wBLcSncdhwAHBPdCElSOc4mdoDZUmB81Z1sw3jSmIjoAXe5515g3YI1ltTPJwDKQfQTgPHAXsFtgPRGwqnRjaiBmcB7ohshSRq5lxD/rTKXEeajgeuJr0fuWUz8LI6SpBHajPgLyjWV97J9BxJfjzrkO0ULLEnKx1ziLyjR8wG0+gnx9cg9vcC+RQssdTvHACgXV0c3gPRTRC5OII0J0NB6SK8Feh6TCoieAlUaMAs4OLgNU4GvB7dhwAJgIvDc6IZkblNgDmnchCSphg4g/pFyHzC74n4OxyR8LbCd3N9fK0nD4BMA5eIB4Hjil31dBFwU3IYBy4FHgaOiG5K5yf1/c9lvkqRhuoD4b5Nzib8JadUDXEl8XXLPUtLPSJLa5OAZ5eTC6AaQXkk8OroRLfqAd/X/1dDGA5+JboQkqZhnE/9Nsg+4ouqOFvBt4utShxxatMCSpDijSGMBoi8ifcA+Ffd1uDYjzX4XXZfccz2ObZLa4oGinPQB25CeBETbHPif6Ea0WEy6QToouiGZ2wh4iLxmdpQkteFQ4r9FDiS3WebGAXcQX5fc8xiwQcEaS5KCjAHmE38R6SOPQYmDHUN8XeqQM4oWWJIU51vEX0AG8uKK+1rE74ivS+5ZDuxQtMCSpBg5/QxwG3nNCwCwE7CC+Nrknt8WLbAkKcYo4F7iLyADOa7a7hZyFvF1qUMOL1pgSVKMjxN/8RjIQmDjars7bOuTBrtF1yb3/JU0eFLSIL4GqFzdB7yDNBVutHGk+eZ/Gd2QFktJPwMcFt2QzK1PuoG7PLohkqT2XUL8N8iBrAR2qba7wzYGuJX42uSeBcCGBWssSQrwUuIvHq35PXk8kWj1POLrUod8rWiBJUmdNxq4k/iLR2uOqbTHxZxHfF1yzyrymGFSktSm44m/eLTmXmDdSns8fNsATxFfm9xzGfk9wZHCOAhQubuVNBhwbHRD+k0lXWwvjW5Ii/mkwW57RzckczNJn6eboxsiSWrPp4n/9tiaJcDTKu3x8E0BHiS+NrnnPmBiwRpLjeITANXBn4F/I5+nAGOAGcDPohvSYhlpxcAcpy7OyRRSrS6JbogkqT2nEf/tsTW95Lda4CjSMrjRtck9TwJbFKyxJKnDppO+4UZfPFpzLemim5N9SDcn0bXJPd8tWmCpKfwJQHXxJDAJeG50Q1psAtwFXB/dkBb3kRYL2im6IZl7OmmxoPuiGyJJWrtJwAPEf3tszUOk35VzMpM0UDG6NrnnOvJ7giN1jE8AVCfLyW+g26T+vxeGtuIfLQImAPtFNyRzm5DmdfhTdEMkSWs3GriB+G+PrVkGbFtlpwtYF7iH+NrknodJcztIXccnAKqbPtISr8dGN6TFaGBz4IfRDWmxAniUtJ6ChjaR9DPAb6MbIklqzznEf3scnEMr7fHw9ZAWMIquS+5ZBswuWGNJUofNIr/5728G1qmy0wU8i7QQTnRtcs85RQss1ZU/AaiuHgcmk957z8UM4BHg6uiGtHiQdLO0a3RDMrc98EfS6pOSpMxNJr/XAucDG1TZ6QI2AhYSX5vccwtpmmepK/gEQHW2nPQk4CXRDWkxoT/nRzekxRLSeICDoxuSuYEnOFdFN0SStHajgCuJ//bYmpXAM6rsdAFjgb8QX5vcM5807bQkqQb2Jr/573N8rewo4utSh5xZtMCSpM7aHFhK/IVjcI6ostMFXUh8XXLPClxLQZJq4XvEXzRWl78C4yrsdxE7ki5w0bXJPTlN7SxJWo0cH/+35n3Vdb2wLxFflzokp8GlkqQWOQ4AHJxFpEVncrI+aZrg6NrknjvJ7wmOVBpfA1SdvQH4t+hGrMU4YBpwbnRDWiwlzaL4guiGZG4a8ARwWXRDJEl/l+MkQENlFbBHNWUobB3gRuJrk3tyfIIjSV3tU8RfHIaTy0mT8eTkYOLrUod8o2iBJUnlynEhoHbyyiqKMULnEl+X3JPjExxJ6ko5LgXcTu4jrT+fk62p581Up5PjExxpRBwEqLo5CPhEdCMKmkJ6B//i4Ha0ehyYCjwnuiGZm0maSvnG6IZIUjcaDdxA/LfBkeRJYMuS6zJSdRpQGZm55PcERyrMJwCqk7cDr49uxAiNIY0q/3F0Q1osJy0XnOPUxTmZQlro6eLgdkhSV5kGzCP+W2BZ2b/c8ozYKNIyuNF1yT05PsGRpEY7k/iTf5n5E/k9gXsOeU+rnEt+ULTAkqTh2YH0mDr6xF923lxmkUryA+LrUofsX7TAkqT2/Yr4E34VeRhYr8Q6lWFz0vS30bXJPTk+wZGGxQ+wcvcS4EPRjajIRNKgwAuiG9JiETAWOCC4HbnbmDSvw3XRDZGkJhoL3E78t70qsxzYrqyClWQCcDfxtck9D5PmUJBqyScAytnxwCuiG1Gx0aRR5d8PbkerlaSL29HRDcncRNKiSr+JbogkNcmGwALiv+V1KjkuzXsp8XXJPcvI7wmOJNXa14k/uXcyt5LGA+TkmaSFcKJrk3t+UbTAkqR/1K0XnuPKKF7Juu1GrGieX7TAkqS/u4T4E3pEHgdmlFC/MnXbTzFFcwv5PcGR1shBgMrNK4H3RDciyHjSwjznRTekxRLS7ICHRDckczOAx4AroxsiSXW0LnAP8d/mIrMSmD3SQpZsHHAH8bXJPfOB6QVrLHWcTwCUk5NIE/90s1GkVefOiW5Ii1XAvTT/lcyRmkB+T3AkKXtOQfv3LAc2GFk5K9HUKZnLzEpg56IFlqRu9H3iT9455U0jK2clmrooU9m5qGiBJanbuAztPyenmQFbNW1Z5qry0qIFlqRuMQq4ivgTdm65YyRFrdA0YB7x9ck9c0hvdUiShvBG4k/WOWYl6eYoR28nvj51yAeKFljqhJ7oBqirTSat9rdJdEMyNY00CU9uRgN/Ap4R3ZDMPUFaJ+CB6IZIq5PrNwx1hw/hxX9N1oluwBBW0b2TNQ3HJOCT0Y2QpNxsDTxF/GPaXNNLvjcAA84hvk65pxfYs2iBJamJfk78yTnnPFi8tB3jTVx7uQJ/blWG/AlAEQ4GjohuROaujW5AG+4EzohuRA3sBbwmuhGSFG0d4Cbiv5XlnvcXLXCHTSY9rYiuV+6ZSxoTIGXDtQDUae8AXhvdiBp4G2lxmdwtJ7Wz29dwWJsppBsBZwmU1JU2IC2ZGv1tLPdcUrTAQUYBVxNft9yzFNiyWIklqd7+k/iTcB1ySNECB9obp3NuJz8qWmBJqqunAyuIPwHnnt8VLXAGvkt8/eqQAwrWV5Jq6dfEn3hzz0pgl6IFzsBmuKRzO7mJ/Od4kKRSHEn8SbcO+UrRAmfkw8TXsQ55S9ECS1JdjAX+QvwJN/c8DswoWOOcTADuIr6euecxYP2CNZZK4URAqtp7gG2jG1EDp5CW2a27pdRnDoNI65PWwpCkRtoIWEj8t63ccyswpmCNc3Ux8XXNPSuAnQrWV5Ky9k3iT7J1yAuKFjhju5IGNUbXNvf8pmiBJSlXzyItGxt9gs09vyxa4Br4GvH1rUNeWLTAkpSbHuBS4k+suWc5sF3BGtfBhsAC4uuce+4AxhWssVSYawGoCq8G3h3diBo4A/h+dCMqtIT0M8Ch0Q3J3Pqkt0CuiG6IJI3EBOAe4r9V5Z6HgfUK1rhOxgK3EV/v3LMQ2LhgjSUpC6cQfzKtQ95ctMA1dDjx9a5Dvlq0wJIUbSbpsW/0iTT3/Inu+/ntfOLrnntWAbsVLbAkRfoh8SfROmT/ogWusR1Igx6ja597/kAaRCtJtfEcXA62nfywaIEb4Azi61+HvKxogaXh8E5TZRgFXE16919DWwrsCNwd3I4o00jrQkyPboiA9IbG4v7//RTwJGmNgvn9fx8jDVa9h/SZvRt4kHSjrwZwSUqV4Y148W/H6XTvxR/Sq24fBr4c3RAB6fw/bdA/23ot/85y4K+kJY1v6P97IzCn9Napcj4B0EhNBW4nzfuvod1PmvRnSXRDgo0GrgN2jm6ISjWPNI/BQK4mPVGQ1GCfJf430zrk1UUL3EAHEr8/TLVZQRrQeCLpzQa/bEoNsy2wjPiTTe65HE+Ag/2E+P1iOpcHSfMcHII/PUuNcC7xJ5bcswrYo2iBG2wWaVBk9P4xnc+jwNdJU0SPQlLtPI/4E0kd8s2iBe4CHyd+/5jY3A98CtgGSbUwBriZ+JNH7lkEbFKwxt1gEukCEL2fTHx6gYuAl9J9s2RKtfIu4k8Ydcj7ixa4i7yO+P1k8sr9wEdJqyRKysgGpIlCok8SuedOXOO9HT3AlcTvL5NfFgGnARsiKQtfJv7EUIccWbTAXWgvnEbaDJ2nSG8QbIqkMM8gTR8afULIPRcWLXAX+w7x+83knSdJTwTWQ1LHXUD8SSD3rMRZ7orYjDQvffT+M/nnMdIEQ/7EJnXIUcQf+HXIl4oWWJxE/P4z9ckdwIuRVKmxpFXcog/43DMfV7obifGkRWWi96OpV34BbIGkSryf+IO8Dvn3ogXW3xxD/H409cti4HicZlgq1UbAQuIP8NxzC2mCJI3cb4jfn6aeuQrYHkmlOJv4g7oOeX7B+uqf7URaTS56n5p6ZilpkKDrDEgjsDtpMZvoAzr3nFu0wBrSWcTvV1PvXER6u0TSMPUAvyf+IM49y4DZBWusoa1Pet0rev+aemce8AK0Wj4i0VBeDewb3Yga+ALpDQmVaz5wanQjVHvTgfNIx6ljdAbpiW6AsjQRuA3YPLohmXuY9O1/UXRDGmoMcAMO6lI5LgL+H+nJkvAJgFbv/Xjxb8dJePGv0gp8tVLlOYj0lsBO0Q2RcjUTWEL8b3e55zq8ge6U84jf36Y5WYQzCEqr9b/EH6C5pxd4btECa9hm4ToBptysBN6GpL/Zj/gDsw75QdECq7C3Eb/fTfPyEbrY6OgGKBujgB/jmttrsxQ4kjQ7ojrnGtKI7j2iG6JGOQDYEPgV6YZA6kpvJv5uvA75aMH6auRGA98m/jNgmpfv4ToC6lJTSa+0RR+EuedeYN2CNVY5eoBTcIZKU36+j0/F1YVOJ/7gq0NeWbTAKt2+wO3EfyZMs/I9vAlQF5lNms42+sDLPX/AibNysw7weuBm4j8fpjn5H7rkFd9uv9MZB4wlvRLSrb4F7BDdiMz1AkcDD0Q3RP+gF/gz8GXgZ8D9pNcFR/dnfFzTVGM7AxsA50c3pGrd9I1mOmn09kHArsDWpIs/pBnH7gSuBy4Efg48EtDGTns+XfAhL8E3gDdFN0KqwHqk68Bk0kVvw/5sAWwJbAU8vf+fdZsPAR+PboRG5umk97aH85h7OemVuF0C2tspY4BbiH/clnsWAhsXrLHUFBsDhwInk740LCT+2Kw6vcC/lFE8dd4U4D8Z2WjhXuCrpFHyTXMc8QdYHfK+ogWWGmwUaU6GDwOXk35GjT5Wq8gK4JCSaqYO2ZFyRwj/FXhGR3tQremk5VajD67ccwdpnIikNdsYeAdwKc17RXM+sG15pVKVdgMepfwPwUKa85PAWcQfVHXIEUULLHWxzYATgbuJP4bLym2k8RLK2HbA41T3IbiP+i+TuzPNfVxXZi4oWmBJQHoT42jSTwTRx3MZOY8ueT2wjiaR7tKq/hBcQ71fn7yI+AMp96zANcOlMu0N/JL4Y3uk+WDZhVE5zqZzH4J3dqZLpTua+AOoDjmzaIElrdGewK+JP8aLZgUuBZ6dV9HZD8ECYKOO9Kw844E5xB9AuedRYP2CNZbUnsOo7wyOc4EZ5ZdERWxJzDupJ3egb2X6IPEHTh3y9qIFljQs65DeHKjjnALnVlAPDVMPcY+T5lCfmRQ3pp4HWadzMy4JKnXaJsCPiD/+h5vXV1ALDcNbiP0A7FN9F0vxLeIPljrkeUULLGnEXg0sIv480G4WADMrqYTWaibx32pPqLyXI7cnaUbD6IMl95xTtMCSSrMtcC3x54N282vq8yS4UX5K/M7/VuW9HJke4Ari65R7niItDiUp3jjgi9Tni8vrqimDhvIi4nd6H2lOgJwdS3yN6pBPFS2wpMocRT2mLH8YmFZRDTTIBNLSvdE7vQ+4seK+jsQk0usq0TXKPQ+SlkKVlJ/ZpDU5os8Ta8uXqyqA/lFOr7P9ueK+jsSpxNenDnlD0QJL6ojpwO+JP1esKauA3asqgJINiR/415qrq+1uYVsBS4mvT+65Guf2lupgPPAL4s8Za8pllfVeAHyJ+J3cmu9U293Cfkx8bXJPL7Bv0QJL6rjRdHbK9yI5qqrOd7utgeXE7+DWvKfSHhdzAPF1qUO+W7C+kuKMBn5A/PljqNyKk4lV4pvE79zByW1RiNGkcQnRdck9S6j/ss5StxpL3gsKvaW6rnenbUmrMEXv2NbMIb/fj6NnRqxLPly0wJKyMBH4I/HnktVlLmkuA5Ukx6lsT6q0x8O3HvAI8XXJPXeTXiWVVG8bkO+Kgj4FKMlM8vvtfzFpgZ2cfI74utQh/69ogSVlZ3PgXuLPK4MzB8cClOKzxO/MwTmu0h4P3/bkd5OUY/6A83ZLTbMraVxP9PllcF5bZae7wRTSikvRO7L/7VGEAAAXf0lEQVQ115AG2+Xk/4ivS+5ZBTyzaIElZe11xJ9jBucm/MIxIv9O/E5szVPAzpX2ePheSHxd6pCvFS2wpFr4KvHnmcE5qNIeN9xNxO/A1uT23v8Y4Dbi65J7FpLfmA1J5RoP3ED8+aY1P6m0xw22H/E7rzW/I7/X/t5NfF3qkOOLFlhSrexKelIbfc4ZyArSQHYN03eJ33kDWUpalSonM4DHia9N7rmdNHGIpO7wYeLPO605tdruNs9k8hrVeXK13S0kx9+7csyLihZYUi2tA1xH/LlnIPeQ39PjrL2O+J02kL+Q36xOuwIria9N7jm/aIEl1dqepAW/os9BAzmw2u4Wk+tEBa+JbkCLE4Fl0Y0Y5AzyexUxNyvIb9Dm6swirSC2J/AMYCPSrI6+PqSq9ZIGyD5Bet36r/25Fbic9PNZXV0JfJv0ZTIHx5LGkWktNiKfb7eXVtzXIo4hvi51yBlFC9wBPcDhpPXDo+tkzFB5iLTy3tHUc/rsTYBFxNexr78d61bb3WZ4M/E7ayDPqbivwzUBuIv4uuSeecC0gjWu2mzSjITRNTJmOFlEWpF1F+rlZOJrN5CjKu5rI5xP/I7qA35TdUcL+BDxdalD3la0wBV7LfAk8fUxZiT5LXAA9TCZ9IUgumZ9wNnVdrX+ppJ+b4/eUX3A/hX3dbg2I/1WF12X3HM9eY6P+CB5DUoyZqQ5h/xej16d9xJfqz7gUfI8N2XjKOJ3Uh9pAExuvkN8XeqQHEfbvp34uhhTRZaRlkbPdUA5wCRgPvG16iO/L5ZZ+QrxO6gPeEXVHR2mvfDbYzvJcdrN/clnUKsxVeUKYBvy9Qnia9QHfKbqjtbZncTvoLmkOfZz0UN6pSW6LrlnKbBVwRpXZSLptaro2hjTicwHnkeeNiGPKYKvq7qjw5HT7ESz+hPt66R3yHNxLLBHdCNq4HOkNyRychKwdXQjpA6ZRhrEneMg3AeBn0U3gvQWxfrRjcjR64i/O+sjr0Etk4D7ia9J7nkQmFKwxlWZRXoqEV0bYyLyAfJzMPF16SOj1wFzegKQwzv3fyBN/ZuLDwKbRjeiBk4kvaeck8+SlieVutEnyG8mzouAOdGNAA6KbkCObiL+zuzfKu9l+/wG2V7+SH7T5h5EfF2MiU4v+Q2oPpX4ulxbeS9rZgqwivgPa07ftn9C/Ac19/SS3pDIyWjgBuJrY0wOeRJ4NvnYmfiaLCOTBeZy+QlgZ+LbchXwQHAbBhwEvDS6ETXwP6QnADn5V9KiPpLS9OU/JS1wlYMbgNuC2zCWdM0LF33RHbBrdAOAX0Q3oN9o4PPRjaiBJ8hvoNE04D+iGyFlZibwxehGtDgvugHAbtENAG8AWl0U3YB+/0omd4eZ+xTpDYmcfBSYHt0IKUPHAi+JbkS/X0U3AHhWdAMgn8FTlwN7B25/MbAB8e//r0sapbpRcDtydxewI2lij1zsQFqHIKdJpKSczCEdJ8uD2zGONGlR5PK8lwH7Bm4fyOcJQPS795cTf/GHNIGGF/+1ex95Xfwh/WzjxV8a2izyeNNqGfFjh6KveUAeNwAb9CfSVcHbh3Q3+t7oRtTAxcCPoxsxyOHAYdGNkGrgJGK/eQ+4Inj7M0hjhkLlcAOwbXQDgKujGwAcg9/+12YVcFx0IwYZC5we3QipJqYDr45uBHms+LpddANyuAF4WnQDyGNihjdGN6AG/pv0O3tO3kkmj/OkmnhHdAPIY1Ge8NUTc7gB2Cx4+wuIf/9/FrBfcBtytwA4OboRg2xIfm2Scrcz8QucPQQ8GtyG8InncrgB2Dx4+9GTQkD6DTmXNzJydQowL7oRg3wcmBrdCKmGjoxuAHBz8PY3Dt5+FjcAmwRvP4fFfw6NbkDmbgO+FN2IQZ6JP9tIReVwA3B78Pajr31Z3ABEr418T/D2xwAHBLchd+8hj9c0B/QAXyCP40eqox2IH/91b/D2vQEg/lWI6N//twMmBrchZ/8HnB/diEFeBjw3uhFSzUUvEhT95W9G8Pa9ASD+BuDpwdvP2QryW1N8AnBadCOkBoi+AZgbvP3JwdvP4gZgSvD2o0eC7hi8/ZydSfzvdIO9F9giuhFSA0Svmjk/ePuTgrefxQ1A9LrITwRvP/o1yFw9AnwsuhGDbE6ahljSyEW/BrcgePveAJBmUosUfQMQPQ1yrk4m/gAd7NM4XkMqS7ffAIwh+AuwNwCwNHj70W9B5OjPwNejGzHIc4BXRjdCapDoQXDRqxKCNwCMDt5+X/D2o/ufo+NI8/7nYhTptT8na5LKE339yeEc0xu58egdAMEFyEAOd6E5+V/gkuhGDPJ64kcsS00T/eXLG4DIjfeL3gnR3+q8Afi7pcCJ0Y0YZDJpyl9J5Yr+8pfD09fQmyBvAOIHdT0WvP2cnA7cHd2IQU4igzm7pQaKfgU7+twPPgFgWfD2o+chiJ6NKhdzgU9FN2KQrUnjESSV7/7g7UffAKwi+AlwDjcAi4K37w1AHt4PLIluxCCfJX6eCqmpom8AolfyXIQ/AbA4ePvRr6JEL0mZgyuA70U3YpCDyWPFMqmpbgne/obB24/+8pvFDUB0EaJn4ruG7h4I2Et6zB49IrjVaODz0Y2QGu6q4O1Hj+1ZGLz9LG4AogfBRS/JuBS4PrgNkb5D/IlgsLcSP0+51HTXBm8/+stf9JffLG4AHgre/pbB2we4MLoBQRYDH4huxCDrA6dEN0JquDuBe4PbsEPw9qOvfd4AANsHbx/gJ9ENCPIJ4MHoRgxyCq7PIFXtZ9ENIH4l1ujliLO4AXg4ePuzia/DteT3/nvV5pDf7+w7kh7/S6rWOdENIP4JwAPB2w+/8EH8a3DjSe97R+oDvh3chk47gfg5IAb7PLBOdCOkhptDevMn0qbAesFtiH4NMosbgDujG0Ae87x/hfwuiFW5kDweAbY6Ajg0uhFSF/gS8dMAR3/7h/gxEFncANxF/CtgOdwAPAT8ILoRHbASeHd0IwYZS5r0R1K1niCPpb53jm4AcHt0A3K4AVhK/KOQPYO3P+DjNH9OgP8CboxuxCDvAraNboTUBb5EBu+/A/sGb/8xYF5wG7JxAekpQFSWAZMq72V7PkdsLarMfGB6eaUqxYbAAuJrY0zT8wjx0+9CWgH2YWJr8YfKe9mGHJ4AANwQvP2xxN8RDvgY8atkVeUE8uvbJ8jjpCQ13Snk8e1/J+KnAb4tePtAPjcAN0U3AHhedAP6PQ68JboRFfgV8M3oRgyyG/CG6EZIXeAK4KvRjej3gugGkMnPoLncAEQ/AYA0CjwXPwXOjm5EiR4H/pX06CsXPcAZ5HMMSE31BHAsaQBwDl4Y3QDg6ugG5GQM8CTxv1HtVHVHh2Ey6cYouiYjzUryfL3uFcTXxphuSE5P2TYgDbSOrMcKYELVHW1HLt9+VhC/MATAUdENaLEYOJz4qZJH6kTSIM+crAt8OroRUhf4HHn99PcK0hfOSDeS3n4Ll8sNAMTPDAXwmugGDHIv6aeJ8FWjCvoccHp0I1bjvcDTohshNdw5pGMtJ6+LbgA+/l+to4h/VNUH7FV1RwvYg/QKXXRthpPc5vkfMBNYQnx9jGlyzic9acvJDsTXpQ94ddUdraP1Sb8XR++cs6ruaEHPJP7d1XbSC/wHaZBdjr5HfI2MaXJ+RHq1OjefJL42vcAmVXe0rq4mfgctJt/3wmcCVxJfo6GyFHhlZb0fuX1IB2B0nYxpas4ARpOfUcB9xNfnlqo7Ohw5jQGAtEhMtEnAG6MbMYT7gP1I79P2BbdlsFtIkyl9P7ohQxgFfIF8n0xIdfYEaYDdccCq4LaszkuAzaMbQR7XuGwdRPwdWh/wV/K8i231PNKymtG1WgmcRlpWOWdvJL5WxjQxlwLbkbdriK9TH+lGREMYQz6D3V5VcV/LMJE0dfAiYmp0PnmsqrU2U4AHif9MGdOkPAq8ifyfqr2A+Fr1kQYf5zYwMjvfIX5H9QE3k99PJEOZTvoW3okbgV7Se/0Hd6Rn5fg08Z8nY5qS+cBHgPWoh8uIr1kf8LOqO9oExxC/owbyior7WrZJwJupZqDgQ8AXge071ptybAM8RfxnyZi652bSe/1TqI8Dia/bQF5XcV8bYSJpQEn0zuojjQXI8XWWdmwBvJU0GccjDL/vS0mTM32WNLivLk9DBvs58Z8jY+qYXuB60jlgN+rpd8TXsY802+0GFfd12HL97ea75PMb/PGkGe3qblNgF2AWMIP0s0HrlJhLSDMP3g/cSZquckWH21i2Q8hvGmIpJ8tJx/7jpEf7fyEtVXsLaXDfvLimjdhLSF+AcnA+eSxCVAsvIv6ObSDzSRdM1ctY4FbiPz+tWYyTgEidMA64g/hjfiB1+zk51BjSnWf0ThvIt6vtrirwIeI/N4PzgUp7LGnAB4k/3geygExW/6uT04nfcQPppV6j3rvdNuSxvHRr7iT/uRKkJphNGsMUfcwP5GvVdreZtievaVv/Shplr7yNAn5P/OdlcHJaalpqqh7yGfg3kH0q7XGDXUz8zmuNd3L5ex/xn5PBcfpPqTPeTfzx3prrqu1us72C+B04OEdU2mONxC7k987/SuAZVXZaEpDn8f+GSnvccOsA9xC/E1vzGLBlhX1WMVNJrzBFfz4G50tVdloSkH6evYX44701j+C4nxE7nvgdOTjX4I7NSQ/wY+I/F4Mznwwn/5Aapgf4IfHH++B8vMpOd4upwELid+bgfKPKTmtYTiL+87C6/HuVnZYEwAnEH+uD8ySwUZWd7iafJH6Hri7vr7LTasvRpPXHoz8Lg3ML/zjToqTyHUkaZxN9vA/OGVV2uttMJ82iFr1TB6cXeHmF/daa7U1+7/sP5NAK+y0pzc2S26C/vv42bVZhv7vSp4jfsavLMtLUxeqsZ5AGZEbv/9Xl5xX2W1Ia8b+A+GN9dflyhf3uWtPpzHr3RbIE2L+6rmuQ2aTliaP3++qyDNi2uq5LXW9b4GHij/XV5UlgZnVd7265DvbqI92c7Fdd19VvR+AB4vf3UDmtuq5LXW9L4C7ij/Oh8snKei4mkJasjd7JQ2UJ8PzKeq+dyPvi/zDprRVJ5duevM//8/D4r9wbiN/Ra8oyHBhYhQNI79VH79815U1VdV7qcruTJtaJPsbXlHdW1nv9zSjgKuJ39prSi0u/lunV5DnatzV/JH02JZXrSNLT1ehjfE3xtd8OejZ5vvs9OGfjjIEjMQr4GHmtCrm6rASeVVENpG7VA7yX/M/1vaQnlOqgrxC/49vJdcCsimrQZFOAc4jff+3kixXVQOpWk8hzet/V5VsV1UBrsD7wIPE7v53MB15STRka6TnAHOL3WzuZiwN/pDLtAtxK/LHd7rl9w2rKoLU5kvgPwHDy38DkSirRDGNIj/xznNpzqBxeSSWk7jOKNK9/7uN9WuPA32DfI/5DMJzMAZ5XSSXqbTfSzyXR+2c48dGfVI7ZwMXEH9PDyS+qKISGZzr1+SmgNd8FNq6gHnUzCfgc9frW3wfcD0yroB5SNxkLnAwsJf6YHk7m4fk7G4eS/0jx1eVx4H1055sCo0iPz3Ke2GeorCItRCKpuKOAO4g/novk6ArqoRH4DPEfiqK5GzgWGF12UTJ1OPBn4uteNE73KRW3P/A74o/jovl6+SXRSI0Frib+wzGS/IU002ETJ5ToIV34676P/kgz949UpR7SqqmXEX8MjyTXk6akV4a2It8lYoeTe4ATgQ3KLU+IdYG3ADcTX9eRZh7wtHLLIzXaaNLU6HV+4jeQhaTBisrYYdRvQNlQeRL4BmmVwZ4yi9QBzwS+QDNuyPpInyl/95faswPwcdKXmehjt6y8rNQKqTIfJP7DUnbuAk4l7ylntyOtgXA98fUqO+8rsU5SE20EHAdcQ/zxWnY+VWKdVLEe6jc/wHByD3AmcASwXkk1K2Jd0hOX02jGI/6h8m3q9wRGqtpY4LnAR4BLgBXEH6tV5Kc0dKGvJp/UxgG/BfaNbkjFVgF/Ig1Ou5Z0930b6ZF1mdYhjbHYDdiDtDzn7qQ6N9klpNdMl0c3RAo2DdgZ2As4iHRuXTe0RdW7jvQT7JLohlShyTcAkCYJugLYJrohHbaC9JPBHcCdwEOk9+0fBhaRxhYsGvTvTCAtwDOVVLdNgM2AmaRH+9uS7vi7ye2kdQnmRzdEqtB40vE/kXSRn06a5GZz0kJms4Dt6b4BsHNJNzv3RzekKk2/AQDYGvg96YImtWsu6fHm3cHtkMowCtgVOIT07X1z0ltG0+me+UeG41HSfAW3RDdEI/d00g6N/i3J1CPzgB2R6m8s8FrSHCPRx1Vdsgh4dpFiK197AYuJ/3CZvLMQD341w8tIj6+jj6k6ZSlwYJFiK3/7ku7uoj9kJs8sBPZGqrcJwFnEH091y1LSbIVqsOeQTvTRHzaTVx4H9kSqt8mkgc/Rx1PdsoQ0PkJdYC/SyO7oD53JI4+RXmmU6mwCcBHxx1Pdspg04E9d5Omkkd7RHz4Tm/twwJ+a4QfEH091y2P4s1/X2oI0aU70h9DE5Fa6791mNdPhxB9Pdcsc0vwG6mLTSfMERH8YTWdzCc1YbVGaiqP9h5urSZMdSYwDzib+Q2k6k6/TfbMaqrmOJ/6YqlPOJc16KP2DE0lz60d/QE01WQmcgNQcPTjJT7vpBU6hoQv7qByHkmaCi/6wmnLzMGkKVKlJDiT+2KpDFgAvLlhjdZmZ+C5tk3IZaWEjqWk+SvzxlXtuAGYXrK+61FjSOvf+JFDfrAQ+CYxBaqZfEn+c5Zpe4Iuk1Q6lQg4E7iX+w2yGl7tJ63hLTebo/9XnYZzWVyWZBnyH+A+1aS9nk16NkppuKfHHW275Ob7ipwq8EJ8G5Jy7gcOG2nlSAy0j/rjLJQ+SVkCUKjMZOJP0+3L0B96krAC+AExaw36Tmugh4o+/6PQC3yA9qZU6YhfgUuI//N2eS4Cd17KvpKbq9reVrgWeO+IqSgX0AK8G7iH+QOi23AW8fO27SGq0rxB/LEbkQeCNOKmPMjAeeA/wKPEHRtMzDziONH2z1O2OJv6Y7GQWAR8j/RQrZWUqaarJx4k/UJqW+aRJT6a0uzOkLjCZtJ599PFZdZ4APk1avE3K2hTgJJxSuIw8AnwQL/zSUP6L+OO0qiwEPgNsWFq1pA6ZCLwduJ34A6luuQ34N1y1S1qbrWje64D3khbucj4P1d4o0hwCv8KphdeUVf01eiEO7pGG45PEH79l5A+kgdVO361G2oL0W7ZvDvw9d/fXZIuiRZW63DjgeuKP5SJ5GPgssEPpVZEyNYq0PO1/0Z1vD8wDziKtteC3fWnktiRdTKOP7XayCPgucCRp4TWpa40BXgB8FZhL/MFZVe4lvbd8GLBOKZWT1Orp5Ds74Hzg+8BRwISqCiDVWQ/wTOBDwO+o92IfS4DfAu/H2fqkTtkK+BPxx/8q4CrSe/v7AKOr7LSGrye6AVqr8cCewP7AHsDu5PtKzEPANaSD/mLgSmB5ZIOkLjUeOBl4L50bUPckcDVwGXA5aZri+R3atgrwBqCetgCeDewI7ARs359OzY73FOk1vVuBm4BbSHNy39eh7Utqz1akJ3CvorzFsnpJx/pN/bmRv58HVpS0DXWANwDN0UNaA3tL0g3CZsBGpJmzppNWyppAmlBnLP88sc5i0sG7gPRO8XzS4MRHSAOL7ie9uXAPaR5uSfUxkTTO6CDST4yzSO/YjyPNsreCtMLpYtJPd4+Rjv+B3Et6W+du0jnAJ3uSJEmSJEmSJEmSJEmSJEmSJEmSJEmSJEmSJEmSJEmSJEmSJEmSJEmSJEmSJEmSJEmSJEmSJEmSJEmSJEmSJEmSJEmSJEmSJEmSJEmSJEmSJEmSJEmSJEmSJEmSJEmSJEmSJEmSJEmSJEmSJEmSJEmSJEmSJEmSJEmSJEmSJEmSJEmSJEmSJEmSJEmSJEmSJEmSJEmSJEmSJEmSJEmSJEmSJEmSJEmSJEmSJEmSJEmSJEmSJEmSJEmSJEmSJEmSpL/5/0xV0txMm7BZAAAAAElFTkSuQmCC;" parent="1" vertex="1">
                    <mxGeometry x="120" y="488" width="40" height="40" as="geometry"/>
                </mxCell>
                <mxCell id="34" value="Pub" style="edgeStyle=none;html=1;flowAnimation=1;" parent="1" source="19" edge="1">
                    <mxGeometry relative="1" as="geometry">
                        <mxPoint x="760" y="607" as="targetPoint"/>
                    </mxGeometry>
                </mxCell>
                <mxCell id="35" style="edgeStyle=none;html=1;flowAnimation=1;entryX=0.25;entryY=0.03;entryDx=0;entryDy=0;entryPerimeter=0;" parent="1" target="29" edge="1">
                    <mxGeometry relative="1" as="geometry">
                        <mxPoint x="620" y="549" as="sourcePoint"/>
                        <mxPoint x="778" y="572" as="targetPoint"/>
                        <Array as="points">
                            <mxPoint x="780" y="549"/>
                        </Array>
                    </mxGeometry>
                </mxCell>
                <mxCell id="44" value="Pub" style="edgeLabel;html=1;align=center;verticalAlign=middle;resizable=0;points=[];" parent="35" vertex="1" connectable="0">
                    <mxGeometry x="-0.192" y="-1" relative="1" as="geometry">
                        <mxPoint y="-2" as="offset"/>
                    </mxGeometry>
                </mxCell>
                <mxCell id="36" value="Notify service" style="whiteSpace=wrap;html=1;rounded=1;fillColor=#dae8fc;strokeColor=#6c8ebf;" parent="1" vertex="1">
                    <mxGeometry x="450" y="669" width="120" height="40" as="geometry"/>
                </mxCell>
                <mxCell id="39" value="api/{version}/orders/{id}" style="whiteSpace=wrap;html=1;rounded=1;" parent="1" vertex="1">
                    <mxGeometry x="450" y="389" width="170" height="40" as="geometry"/>
                </mxCell>
                <mxCell id="42" style="edgeStyle=none;html=1;flowAnimation=1;exitX=1;exitY=0.75;exitDx=0;exitDy=0;" parent="1" edge="1">
                    <mxGeometry relative="1" as="geometry">
                        <mxPoint x="620" y="398" as="sourcePoint"/>
                        <mxPoint x="784" y="399" as="targetPoint"/>
                        <Array as="points">
                            <mxPoint x="784" y="399"/>
                        </Array>
                    </mxGeometry>
                </mxCell>
                <mxCell id="45" style="edgeStyle=none;html=1;startArrow=classic;startFill=1;dashed=1;" parent="1" source="36" edge="1">
                    <mxGeometry relative="1" as="geometry">
                        <mxPoint x="790" y="639" as="targetPoint"/>
                        <Array as="points">
                            <mxPoint x="790" y="689"/>
                        </Array>
                    </mxGeometry>
                </mxCell>
                <mxCell id="46" value="Sub" style="edgeLabel;html=1;align=center;verticalAlign=middle;resizable=0;points=[];" parent="45" vertex="1" connectable="0">
                    <mxGeometry x="-0.0345" y="-2" relative="1" as="geometry">
                        <mxPoint y="-4" as="offset"/>
                    </mxGeometry>
                </mxCell>
                <mxCell id="49" value="Production system" style="image;aspect=fixed;html=1;points=[];align=center;fontSize=12;image=img/lib/azure2/app_services/App_Services.svg;" parent="1" vertex="1">
                    <mxGeometry x="480" y="819" width="40" height="40" as="geometry"/>
                </mxCell>
                <mxCell id="50" style="edgeStyle=none;html=1;flowAnimation=1;" parent="1" edge="1">
                    <mxGeometry relative="1" as="geometry">
                        <mxPoint x="500" y="713" as="sourcePoint"/>
                        <mxPoint x="500" y="814" as="targetPoint"/>
                    </mxGeometry>
                </mxCell>
                <mxCell id="51" value="Push invoice" style="edgeLabel;html=1;align=center;verticalAlign=middle;resizable=0;points=[];" parent="50" vertex="1" connectable="0">
                    <mxGeometry x="0.0088" y="-1" relative="1" as="geometry">
                        <mxPoint as="offset"/>
                    </mxGeometry>
                </mxCell>
                <mxCell id="54" style="edgeStyle=none;html=1;entryX=0;entryY=0.5;entryDx=0;entryDy=0;exitX=0.5;exitY=1;exitDx=0;exitDy=0;exitPerimeter=0;flowAnimation=1;" parent="1" source="10" target="53" edge="1">
                    <mxGeometry relative="1" as="geometry">
                        <Array as="points">
                            <mxPoint x="350" y="468"/>
                        </Array>
                    </mxGeometry>
                </mxCell>
                <mxCell id="57" style="edgeStyle=none;html=1;entryX=0;entryY=0.75;entryDx=0;entryDy=0;exitX=1;exitY=0.5;exitDx=0;exitDy=0;exitPerimeter=0;flowAnimation=1;" parent="1" source="10" target="39" edge="1">
                    <mxGeometry relative="1" as="geometry">
                        <mxPoint x="370" y="416" as="sourcePoint"/>
                        <mxPoint x="450" y="419" as="targetPoint"/>
                    </mxGeometry>
                </mxCell>
                <mxCell id="10" value="API Gateway" style="sketch=0;points=[[0,0,0],[0.25,0,0],[0.5,0,0],[0.75,0,0],[1,0,0],[0,1,0],[0.25,1,0],[0.5,1,0],[0.75,1,0],[1,1,0],[0,0.25,0],[0,0.5,0],[0,0.75,0],[1,0.25,0],[1,0.5,0],[1,0.75,0]];outlineConnect=0;fontColor=#232F3E;fillColor=#8C4FFF;strokeColor=#ffffff;dashed=0;verticalLabelPosition=bottom;verticalAlign=top;align=center;html=1;fontSize=12;fontStyle=0;aspect=fixed;shape=mxgraph.aws4.resourceIcon;resIcon=mxgraph.aws4.api_gateway;" parent="1" vertex="1">
                    <mxGeometry x="330" y="399" width="40" height="40" as="geometry"/>
                </mxCell>
                <mxCell id="53" value="api/{version}/users/orders" style="whiteSpace=wrap;html=1;rounded=1;" parent="1" vertex="1">
                    <mxGeometry x="450" y="448" width="170" height="40" as="geometry"/>
                </mxCell>
            </root>
        </mxGraphModel>
    </diagram>
</mxfile>